<svg width="187" height="37" viewBox="0 0 187 37" fill="none" xmlns="http://www.w3.org/2000/svg">
<path opacity="0.35" fill-rule="evenodd" clip-rule="evenodd" d="M18.5 36C28.165 36 36 28.165 36 18.5C36 8.83502 28.165 1 18.5 1C8.83502 1 1 8.83502 1 18.5C1 28.165 8.83502 36 18.5 36Z" stroke="#222325" stroke-width="1.5"/>
<path d="M22.334 14.6665C23.6601 14.6665 24.9318 15.1933 25.8695 16.131C26.8072 17.0687 27.334 18.3404 27.334 19.6665V25.4998H24.0007V19.6665C24.0007 19.2245 23.8251 18.8006 23.5125 18.488C23.1999 18.1754 22.776 17.9998 22.334 17.9998C21.892 17.9998 21.468 18.1754 21.1555 18.488C20.8429 18.8006 20.6673 19.2245 20.6673 19.6665V25.4998H17.334V19.6665C17.334 18.3404 17.8608 17.0687 18.7985 16.131C19.7361 15.1933 21.0079 14.6665 22.334 14.6665Z" fill="#222325"/>
<path d="M13.9993 15.5H10.666V25.5H13.9993V15.5Z" fill="#222325"/>
<path d="M12.3327 12.9998C13.2532 12.9998 13.9993 12.2536 13.9993 11.3332C13.9993 10.4127 13.2532 9.6665 12.3327 9.6665C11.4122 9.6665 10.666 10.4127 10.666 11.3332C10.666 12.2536 11.4122 12.9998 12.3327 12.9998Z" fill="#222325"/>
<path opacity="0.35" fill-rule="evenodd" clip-rule="evenodd" d="M68.5 36C78.165 36 86 28.165 86 18.5C86 8.83502 78.165 1 68.5 1C58.835 1 51 8.83502 51 18.5C51 28.165 58.835 36 68.5 36Z" stroke="#222325" stroke-width="1.5"/>
<path d="M74.0007 9.6665H71.5007C70.3956 9.6665 69.3358 10.1055 68.5544 10.8869C67.773 11.6683 67.334 12.7281 67.334 13.8332V16.3332H64.834V19.6665H67.334V26.3332H70.6673V19.6665H73.1673L74.0007 16.3332H70.6673V13.8332C70.6673 13.6122 70.7551 13.4002 70.9114 13.2439C71.0677 13.0876 71.2796 12.9998 71.5007 12.9998H74.0007V9.6665Z" fill="#222325"/>
<path opacity="0.35" fill-rule="evenodd" clip-rule="evenodd" d="M118.5 36C128.165 36 136 28.165 136 18.5C136 8.83502 128.165 1 118.5 1C108.835 1 101 8.83502 101 18.5C101 28.165 108.835 36 118.5 36Z" stroke="#222325" stroke-width="1.5"/>
<g clip-path="url(#clip0_6378_412)">
<path d="M123.166 10.6665H114.833C112.531 10.6665 110.666 12.532 110.666 14.8332V23.1665C110.666 25.4677 112.531 27.3332 114.833 27.3332H123.166C125.467 27.3332 127.333 25.4677 127.333 23.1665V14.8332C127.333 12.532 125.467 10.6665 123.166 10.6665Z" stroke="#222325" stroke-width="2" stroke-linecap="round" stroke-linejoin="round"/>
<path d="M122.334 18.4748C122.437 19.1683 122.318 19.8766 121.995 20.4989C121.672 21.1213 121.161 21.6259 120.535 21.9412C119.909 22.2564 119.199 22.3661 118.507 22.2547C117.815 22.1433 117.175 21.8165 116.679 21.3207C116.184 20.825 115.857 20.1855 115.745 19.4933C115.634 18.8011 115.744 18.0913 116.059 17.4651C116.374 16.8388 116.879 16.3279 117.501 16.005C118.124 15.682 118.832 15.5636 119.525 15.6664C120.233 15.7713 120.888 16.101 121.393 16.6067C121.899 17.1124 122.229 17.7673 122.334 18.4748Z" stroke="#222325" stroke-width="2" stroke-linecap="round" stroke-linejoin="round"/>
<path d="M123.584 14.4165H123.592" stroke="#222325" stroke-width="2" stroke-linecap="round" stroke-linejoin="round"/>
</g>
<path opacity="0.35" fill-rule="evenodd" clip-rule="evenodd" d="M168.5 36C178.165 36 186 28.165 186 18.5C186 8.83502 178.165 1 168.5 1C158.835 1 151 8.83502 151 18.5C151 28.165 158.835 36 168.5 36Z" stroke="#222325" stroke-width="1.5"/>
<g clip-path="url(#clip1_6378_412)">
<path d="M178.165 11.5001C177.367 12.063 176.484 12.4935 175.549 12.7751C175.047 12.198 174.38 11.789 173.638 11.6034C172.896 11.4177 172.115 11.4644 171.4 11.7371C170.686 12.0098 170.072 12.4954 169.643 13.1282C169.213 13.7609 168.988 14.5104 168.999 15.2751V16.1084C167.534 16.1464 166.083 15.8216 164.775 15.163C163.466 14.5043 162.341 13.5323 161.499 12.3334C161.499 12.3334 158.165 19.8334 165.665 23.1667C163.949 24.3317 161.905 24.9159 159.832 24.8334C167.332 29.0001 176.499 24.8334 176.499 15.2501C176.498 15.018 176.476 14.7864 176.432 14.5584C177.283 13.7197 177.883 12.6607 178.165 11.5001V11.5001Z" stroke="#222325" stroke-width="2" stroke-linecap="round" stroke-linejoin="round"/>
</g>
<defs>
<clipPath id="clip0_6378_412">
<rect width="20" height="20" fill="white" transform="translate(109 9)"/>
</clipPath>
<clipPath id="clip1_6378_412">
<rect width="20" height="20" fill="white" transform="translate(159 9)"/>
</clipPath>
</defs>
</svg>
